{"glyphs":{"0":{"ha":1042,"x_min":174,"x_max":868,"o":"m 347 0 l 347 174 l 174 174 l 174 694 l 347 694 l 347 868 l 694 868 l 694 694 l 868 694 l 868 174 l 694 174 l 694 0 l 347 0 m 347 181 l 694 181 l 694 688 l 347 688 l 347 181 z "},"1":{"ha":868,"x_min":174,"x_max":694,"o":"m 174 0 l 174 174 l 347 174 l 347 694 l 174 694 l 174 868 l 521 868 l 521 174 l 694 174 l 694 0 l 174 0 z "},"2":{"ha":1042,"x_min":174,"x_max":868,"o":"m 694 521 l 694 694 l 174 694 l 174 868 l 694 868 l 694 694 l 868 694 l 868 521 l 694 521 m 347 347 l 347 521 l 694 521 l 694 347 l 347 347 m 174 0 l 174 347 l 347 347 l 347 174 l 868 174 l 868 0 l 174 0 z "},"3":{"ha":1042,"x_min":174,"x_max":868,"o":"m 694 521 l 694 694 l 174 694 l 174 868 l 694 868 l 694 694 l 868 694 l 868 521 l 694 521 m 694 174 l 694 347 l 347 347 l 347 521 l 694 521 l 694 347 l 868 347 l 868 174 l 694 174 m 174 0 l 174 174 l 694 174 l 694 0 l 174 0 z "},"4":{"ha":1042,"x_min":174,"x_max":868,"o":"m 521 0 l 521 347 l 174 347 l 174 868 l 347 868 l 347 521 l 521 521 l 521 868 l 694 868 l 694 521 l 868 521 l 868 347 l 694 347 l 694 0 l 521 0 z "},"5":{"ha":1042,"x_min":174,"x_max":868,"o":"m 694 174 l 694 347 l 174 347 l 174 868 l 868 868 l 868 694 l 347 694 l 347 521 l 694 521 l 694 347 l 868 347 l 868 174 l 694 174 m 174 0 l 174 174 l 694 174 l 694 0 l 174 0 z "},"6":{"ha":1042,"x_min":174,"x_max":868,"o":"m 347 0 l 347 174 l 174 174 l 174 694 l 347 694 l 347 868 l 694 868 l 694 694 l 347 694 l 347 521 l 694 521 l 694 347 l 868 347 l 868 174 l 694 174 l 694 0 l 347 0 m 347 181 l 694 181 l 694 340 l 347 340 l 347 181 z "},"7":{"ha":1042,"x_min":174,"x_max":868,"o":"m 347 0 l 347 347 l 521 347 l 521 521 l 694 521 l 694 694 l 174 694 l 174 868 l 868 868 l 868 521 l 694 521 l 694 347 l 521 347 l 521 0 l 347 0 z "},"8":{"ha":1042,"x_min":174,"x_max":868,"o":"m 347 0 l 347 174 l 174 174 l 174 347 l 347 347 l 347 521 l 174 521 l 174 694 l 347 694 l 347 868 l 694 868 l 694 694 l 868 694 l 868 521 l 694 521 l 694 347 l 868 347 l 868 174 l 694 174 l 694 0 l 347 0 m 347 528 l 694 528 l 694 688 l 347 688 l 347 528 m 347 181 l 694 181 l 694 340 l 347 340 l 347 181 z "},"9":{"ha":1042,"x_min":174,"x_max":868,"o":"m 347 0 l 347 174 l 694 174 l 694 347 l 347 347 l 347 521 l 174 521 l 174 694 l 347 694 l 347 868 l 694 868 l 694 694 l 868 694 l 868 174 l 694 174 l 694 0 l 347 0 m 347 528 l 694 528 l 694 688 l 347 688 l 347 528 z "},"A":{"ha":1042,"x_min":174,"x_max":868,"o":"m 174 0 l 174 694 l 347 694 l 347 868 l 694 868 l 694 694 l 868 694 l 868 0 l 694 0 l 694 347 l 347 347 l 347 0 l 174 0 m 347 521 l 694 521 l 694 688 l 347 688 l 347 521 z "},"Á":{"ha":1042,"x_min":174,"x_max":868,"o":"m 174 0 l 174 694 l 347 694 l 347 868 l 694 868 l 694 694 l 868 694 l 868 0 l 694 0 l 694 347 l 347 347 l 347 0 l 174 0 m 347 521 l 694 521 l 694 688 l 347 688 l 347 521 m 347 1042 l 347 1215 l 521 1215 l 521 1389 l 694 1389 l 694 1215 l 521 1215 l 521 1042 l 347 1042 z "},"Â":{"ha":1042,"x_min":174,"x_max":868,"o":"m 174 1042 l 174 1215 l 347 1215 l 347 1389 l 694 1389 l 694 1215 l 868 1215 l 868 1042 l 694 1042 l 694 1215 l 347 1215 l 347 1042 l 174 1042 m 174 0 l 174 694 l 347 694 l 347 868 l 694 868 l 694 694 l 868 694 l 868 0 l 694 0 l 694 347 l 347 347 l 347 0 l 174 0 m 347 521 l 694 521 l 694 688 l 347 688 l 347 521 z "},"Ä":{"ha":1042,"x_min":174,"x_max":868,"o":"m 694 1042 l 694 1215 l 868 1215 l 868 1042 l 694 1042 m 174 1042 l 174 1215 l 347 1215 l 347 1042 l 174 1042 m 174 0 l 174 694 l 347 694 l 347 868 l 694 868 l 694 694 l 868 694 l 868 0 l 694 0 l 694 347 l 347 347 l 347 0 l 174 0 m 347 521 l 694 521 l 694 688 l 347 688 l 347 521 z "},"À":{"ha":1042,"x_min":174,"x_max":868,"o":"m 174 0 l 174 694 l 347 694 l 347 868 l 694 868 l 694 694 l 868 694 l 868 0 l 694 0 l 694 347 l 347 347 l 347 0 l 174 0 m 347 521 l 694 521 l 694 688 l 347 688 l 347 521 m 521 1042 l 521 1215 l 347 1215 l 347 1389 l 521 1389 l 521 1215 l 694 1215 l 694 1042 l 521 1042 z "},"Å":{"ha":1042,"x_min":174,"x_max":868,"o":"m 868 1215 l 694 1215 l 694 1389 l 868 1389 l 868 1215 m 347 1042 l 347 1215 l 174 1215 l 174 1389 l 347 1389 l 347 1215 l 694 1215 l 694 1042 l 347 1042 m 174 0 l 174 694 l 347 694 l 347 868 l 694 868 l 694 694 l 868 694 l 868 0 l 694 0 l 694 347 l 347 347 l 347 0 l 174 0 m 347 521 l 694 521 l 694 688 l 347 688 l 347 521 z "},"Ã":{"ha":1042,"x_min":174,"x_max":868,"o":"m 174 0 l 174 694 l 347 694 l 347 868 l 694 868 l 694 694 l 868 694 l 868 0 l 694 0 l 694 347 l 347 347 l 347 0 l 174 0 m 347 521 l 694 521 l 694 688 l 347 688 l 347 521 m 868 1215 l 694 1215 l 694 1389 l 868 1389 l 868 1215 m 174 1042 l 174 1215 l 347 1215 l 347 1389 l 521 1389 l 521 1215 l 694 1215 l 694 1042 l 521 1042 l 521 1215 l 347 1215 l 347 1042 l 174 1042 z "},"Æ":{"ha":1215,"x_min":174,"x_max":1042,"o":"m 174 0 l 174 694 l 347 694 l 347 868 l 1042 868 l 1042 694 l 694 694 l 694 521 l 1042 521 l 1042 347 l 694 347 l 694 174 l 1042 174 l 1042 0 l 521 0 l 521 347 l 347 347 l 347 0 l 174 0 m 347 521 l 521 521 l 521 688 l 347 688 l 347 521 z "},"B":{"ha":1042,"x_min":174,"x_max":868,"o":"m 174 0 l 174 868 l 694 868 l 694 694 l 868 694 l 868 174 l 694 174 l 694 0 l 174 0 m 347 521 l 688 521 l 688 694 l 347 694 l 347 521 m 347 174 l 688 174 l 688 347 l 347 347 l 347 174 z "},"C":{"ha":1042,"x_min":174,"x_max":868,"o":"m 694 521 l 694 694 l 347 694 l 347 868 l 694 868 l 694 694 l 868 694 l 868 521 l 694 521 m 347 0 l 347 174 l 174 174 l 174 694 l 347 694 l 347 174 l 694 174 l 694 0 l 347 0 m 694 174 l 694 347 l 868 347 l 868 174 l 694 174 z "},"Ç":{"ha":1042,"x_min":174,"x_max":868,"o":"m 694 521 l 694 694 l 347 694 l 347 868 l 694 868 l 694 694 l 868 694 l 868 521 l 694 521 m 347 0 l 347 174 l 174 174 l 174 694 l 347 694 l 347 174 l 694 174 l 694 0 l 347 0 m 694 174 l 694 347 l 868 347 l 868 174 l 694 174 m 347 -174 l 347 0 l 521 0 l 521 -174 l 347 -174 m 174 -347 l 174 -174 l 347 -174 l 347 -347 l 174 -347 z "},"D":{"ha":1042,"x_min":174,"x_max":868,"o":"m 174 0 l 174 868 l 694 868 l 694 694 l 868 694 l 868 174 l 694 174 l 694 0 l 174 0 m 347 174 l 688 174 l 688 694 l 347 694 l 347 174 z "},"Ð":{"ha":1215,"x_min":174,"x_max":1042,"o":"m 347 0 l 347 347 l 174 347 l 174 521 l 347 521 l 347 868 l 868 868 l 868 694 l 1042 694 l 1042 174 l 868 174 l 868 0 l 347 0 m 521 174 l 861 174 l 861 694 l 521 694 l 521 521 l 694 521 l 694 347 l 521 347 l 521 174 z "},"E":{"ha":868,"x_min":174,"x_max":694,"o":"m 174 0 l 174 868 l 694 868 l 694 694 l 347 694 l 347 521 l 694 521 l 694 347 l 347 347 l 347 174 l 694 174 l 694 0 l 174 0 z "},"É":{"ha":868,"x_min":174,"x_max":694,"o":"m 174 0 l 174 868 l 694 868 l 694 694 l 347 694 l 347 521 l 694 521 l 694 347 l 347 347 l 347 174 l 694 174 l 694 0 l 174 0 m 347 1042 l 347 1215 l 521 1215 l 521 1389 l 694 1389 l 694 1215 l 521 1215 l 521 1042 l 347 1042 z "},"Ê":{"ha":868,"x_min":174,"x_max":694,"o":"m 174 0 l 174 868 l 694 868 l 694 694 l 347 694 l 347 521 l 694 521 l 694 347 l 347 347 l 347 174 l 694 174 l 694 0 l 174 0 m 174 1042 l 174 1215 l 347 1215 l 347 1389 l 521 1389 l 521 1215 l 694 1215 l 694 1042 l 521 1042 l 521 1215 l 347 1215 l 347 1042 l 174 1042 z "},"Ë":{"ha":868,"x_min":174,"x_max":694,"o":"m 174 0 l 174 868 l 694 868 l 694 694 l 347 694 l 347 521 l 694 521 l 694 347 l 347 347 l 347 174 l 694 174 l 694 0 l 174 0 m 521 1042 l 521 1215 l 694 1215 l 694 1042 l 521 1042 m 174 1042 l 174 1215 l 347 1215 l 347 1042 l 174 1042 z "},"È":{"ha":868,"x_min":174,"x_max":694,"o":"m 174 0 l 174 868 l 694 868 l 694 694 l 347 694 l 347 521 l 694 521 l 694 347 l 347 347 l 347 174 l 694 174 l 694 0 l 174 0 m 347 1042 l 347 1215 l 174 1215 l 174 1389 l 347 1389 l 347 1215 l 521 1215 l 521 1042 l 347 1042 z "},"F":{"ha":868,"x_min":174,"x_max":694,"o":"m 174 0 l 174 868 l 694 868 l 694 694 l 347 694 l 347 521 l 694 521 l 694 347 l 347 347 l 347 0 l 174 0 z "},"G":{"ha":1042,"x_min":174,"x_max":868,"o":"m 347 694 l 347 868 l 868 868 l 868 694 l 347 694 m 174 174 l 174 694 l 347 694 l 347 174 l 174 174 m 694 174 l 694 347 l 521 347 l 521 521 l 868 521 l 868 174 l 694 174 m 347 0 l 347 174 l 694 174 l 694 0 l 347 0 z "},"H":{"ha":1042,"x_min":174,"x_max":868,"o":"m 174 0 l 174 868 l 347 868 l 347 521 l 694 521 l 694 868 l 868 868 l 868 0 l 694 0 l 694 347 l 347 347 l 347 0 l 174 0 z "},"I":{"ha":521,"x_min":174,"x_max":347,"o":"m 174 0 l 174 868 l 347 868 l 347 0 l 174 0 z "},"Í":{"ha":521,"x_min":174,"x_max":521,"o":"m 174 0 l 174 868 l 347 868 l 347 0 l 174 0 m 174 1042 l 174 1215 l 347 1215 l 347 1389 l 521 1389 l 521 1215 l 347 1215 l 347 1042 l 174 1042 z "},"Î":{"ha":521,"x_min":0,"x_max":521,"o":"m 174 0 l 174 868 l 347 868 l 347 0 l 174 0 m 0 1042 l 0 1215 l 174 1215 l 174 1389 l 347 1389 l 347 1215 l 521 1215 l 521 1042 l 347 1042 l 347 1215 l 174 1215 l 174 1042 l 0 1042 z "},"Ï":{"ha":521,"x_min":0,"x_max":521,"o":"m 174 0 l 174 868 l 347 868 l 347 0 l 174 0 m 347 1042 l 347 1215 l 521 1215 l 521 1042 l 347 1042 m 0 1042 l 0 1215 l 174 1215 l 174 1042 l 0 1042 z "},"Ì":{"ha":521,"x_min":0,"x_max":347,"o":"m 174 0 l 174 868 l 347 868 l 347 0 l 174 0 m 174 1042 l 174 1215 l 0 1215 l 0 1389 l 174 1389 l 174 1215 l 347 1215 l 347 1042 l 174 1042 z "},"J":{"ha":1042,"x_min":174,"x_max":868,"o":"m 694 174 l 694 868 l 868 868 l 868 174 l 694 174 m 347 0 l 347 174 l 174 174 l 174 347 l 347 347 l 347 174 l 694 174 l 694 0 l 347 0 z "},"K":{"ha":1042,"x_min":174,"x_max":868,"o":"m 174 0 l 174 868 l 347 868 l 347 521 l 521 521 l 521 347 l 694 347 l 694 174 l 868 174 l 868 0 l 694 0 l 694 174 l 521 174 l 521 347 l 347 347 l 347 0 l 174 0 m 694 694 l 694 868 l 868 868 l 868 694 l 694 694 m 521 521 l 521 694 l 694 694 l 694 521 l 521 521 z "},"L":{"ha":868,"x_min":174,"x_max":694,"o":"m 174 0 l 174 868 l 347 868 l 347 174 l 694 174 l 694 0 l 174 0 z "},"M":{"ha":1215,"x_min":174,"x_max":1042,"o":"m 174 0 l 174 868 l 347 868 l 347 694 l 521 694 l 521 521 l 694 521 l 694 347 l 521 347 l 521 521 l 347 521 l 347 0 l 174 0 m 868 0 l 868 521 l 694 521 l 694 694 l 868 694 l 868 868 l 1042 868 l 1042 0 l 868 0 z "},"N":{"ha":1215,"x_min":174,"x_max":1042,"o":"m 174 0 l 174 868 l 347 868 l 347 694 l 521 694 l 521 521 l 694 521 l 694 347 l 868 347 l 868 868 l 1042 868 l 1042 0 l 868 0 l 868 174 l 694 174 l 694 347 l 521 347 l 521 521 l 347 521 l 347 0 l 174 0 z "},"Ñ":{"ha":1215,"x_min":174,"x_max":1042,"o":"m 174 0 l 174 868 l 347 868 l 347 694 l 521 694 l 521 521 l 694 521 l 694 347 l 868 347 l 868 868 l 1042 868 l 1042 0 l 868 0 l 868 174 l 694 174 l 694 347 l 521 347 l 521 521 l 347 521 l 347 0 l 174 0 m 1042 1215 l 868 1215 l 868 1389 l 1042 1389 l 1042 1215 m 347 1042 l 347 1215 l 521 1215 l 521 1389 l 694 1389 l 694 1215 l 868 1215 l 868 1042 l 694 1042 l 694 1215 l 521 1215 l 521 1042 l 347 1042 z "},"O":{"ha":1042,"x_min":174,"x_max":868,"o":"m 347 0 l 347 174 l 174 174 l 174 694 l 347 694 l 347 868 l 694 868 l 694 694 l 868 694 l 868 174 l 694 174 l 694 0 l 347 0 m 347 181 l 694 181 l 694 688 l 347 688 l 347 181 z "},"Ó":{"ha":1042,"x_min":174,"x_max":868,"o":"m 347 0 l 347 174 l 174 174 l 174 694 l 347 694 l 347 868 l 694 868 l 694 694 l 868 694 l 868 174 l 694 174 l 694 0 l 347 0 m 347 181 l 694 181 l 694 688 l 347 688 l 347 181 m 347 1042 l 347 1215 l 521 1215 l 521 1389 l 694 1389 l 694 1215 l 521 1215 l 521 1042 l 347 1042 z "},"Ô":{"ha":1042,"x_min":174,"x_max":868,"o":"m 347 0 l 347 174 l 174 174 l 174 694 l 347 694 l 347 868 l 694 868 l 694 694 l 868 694 l 868 174 l 694 174 l 694 0 l 347 0 m 347 181 l 694 181 l 694 688 l 347 688 l 347 181 m 260 1042 l 260 1215 l 433 1215 l 433 1389 l 607 1389 l 607 1215 l 781 1215 l 781 1042 l 607 1042 l 607 1215 l 433 1215 l 433 1042 l 260 1042 z "},"Ö":{"ha":1042,"x_min":174,"x_max":868,"o":"m 347 0 l 347 174 l 174 174 l 174 694 l 347 694 l 347 868 l 694 868 l 694 694 l 868 694 l 868 174 l 694 174 l 694 0 l 347 0 m 347 181 l 694 181 l 694 688 l 347 688 l 347 181 m 607 1042 l 607 1215 l 781 1215 l 781 1042 l 607 1042 m 260 1042 l 260 1215 l 433 1215 l 433 1042 l 260 1042 z "},"Ò":{"ha":1042,"x_min":174,"x_max":868,"o":"m 347 0 l 347 174 l 174 174 l 174 694 l 347 694 l 347 868 l 694 868 l 694 694 l 868 694 l 868 174 l 694 174 l 694 0 l 347 0 m 347 181 l 694 181 l 694 688 l 347 688 l 347 181 m 521 1042 l 521 1215 l 347 1215 l 347 1389 l 521 1389 l 521 1215 l 694 1215 l 694 1042 l 521 1042 z "},"Ø":{"ha":1215,"x_min":174,"x_max":1042,"o":"m 347 0 l 347 174 l 174 174 l 174 694 l 347 694 l 347 868 l 868 868 l 868 694 l 1042 694 l 1042 174 l 868 174 l 868 0 l 347 0 m 347 347 l 521 347 l 521 181 l 868 181 l 868 521 l 694 521 l 694 347 l 521 347 l 521 521 l 694 521 l 694 688 l 347 688 l 347 347 z "},"Õ":{"ha":1042,"x_min":174,"x_max":868,"o":"m 347 0 l 347 174 l 174 174 l 174 694 l 347 694 l 347 868 l 694 868 l 694 694 l 868 694 l 868 174 l 694 174 l 694 0 l 347 0 m 347 181 l 694 181 l 694 688 l 347 688 l 347 181 m 868 1215 l 694 1215 l 694 1389 l 868 1389 l 868 1215 m 174 1042 l 174 1215 l 347 1215 l 347 1389 l 521 1389 l 521 1215 l 694 1215 l 694 1042 l 521 1042 l 521 1215 l 347 1215 l 347 1042 l 174 1042 z "},"Œ":{"ha":1215,"x_min":174,"x_max":1042,"o":"m 347 0 l 347 174 l 174 174 l 174 694 l 347 694 l 347 868 l 1042 868 l 1042 694 l 694 694 l 694 521 l 1042 521 l 1042 347 l 694 347 l 694 174 l 1042 174 l 1042 0 l 347 0 m 354 175 l 521 175 l 521 696 l 354 696 l 354 175 z "},"P":{"ha":1042,"x_min":174,"x_max":868,"o":"m 174 0 l 174 868 l 694 868 l 694 694 l 868 694 l 868 521 l 694 521 l 694 347 l 347 347 l 347 0 l 174 0 m 347 521 l 688 521 l 688 694 l 347 694 l 347 521 z "},"Þ":{"ha":868,"x_min":174,"x_max":694,"o":"m 174 0 l 174 868 l 347 868 l 347 694 l 521 694 l 521 521 l 694 521 l 694 347 l 521 347 l 521 174 l 347 174 l 347 0 l 174 0 m 347 347 l 514 347 l 514 521 l 347 521 l 347 347 z "},"Q":{"ha":1042,"x_min":174,"x_max":868,"o":"m 694 -174 l 694 0 l 347 0 l 347 174 l 174 174 l 174 694 l 347 694 l 347 868 l 694 868 l 694 694 l 868 694 l 868 174 l 694 174 l 694 0 l 868 0 l 868 -174 l 694 -174 m 347 181 l 694 181 l 694 688 l 347 688 l 347 181 z "},"R":{"ha":1042,"x_min":174,"x_max":868,"o":"m 174 0 l 174 868 l 694 868 l 694 694 l 868 694 l 868 521 l 694 521 l 694 174 l 868 174 l 868 0 l 694 0 l 694 174 l 521 174 l 521 347 l 347 347 l 347 0 l 174 0 m 347 521 l 688 521 l 688 694 l 347 694 l 347 521 z "},"S":{"ha":1042,"x_min":174,"x_max":868,"o":"m 347 694 l 347 868 l 868 868 l 868 694 l 347 694 m 694 174 l 694 347 l 347 347 l 347 521 l 174 521 l 174 694 l 347 694 l 347 521 l 694 521 l 694 347 l 868 347 l 868 174 l 694 174 m 174 0 l 174 174 l 694 174 l 694 0 l 174 0 z "},"Š":{"ha":1042,"x_min":174,"x_max":868,"o":"m 868 1215 l 694 1215 l 694 1389 l 868 1389 l 868 1215 m 347 1042 l 347 1215 l 174 1215 l 174 1389 l 347 1389 l 347 1215 l 694 1215 l 694 1042 l 347 1042 m 347 694 l 347 868 l 868 868 l 868 694 l 347 694 m 694 174 l 694 347 l 347 347 l 347 521 l 174 521 l 174 694 l 347 694 l 347 521 l 694 521 l 694 347 l 868 347 l 868 174 l 694 174 m 174 0 l 174 174 l 694 174 l 694 0 l 174 0 z "},"T":{"ha":868,"x_min":174,"x_max":694,"o":"m 347 0 l 347 694 l 174 694 l 174 868 l 694 868 l 694 694 l 521 694 l 521 0 l 347 0 z "},"U":{"ha":1042,"x_min":174,"x_max":868,"o":"m 347 0 l 347 174 l 174 174 l 174 868 l 347 868 l 347 174 l 694 174 l 694 0 l 347 0 m 694 174 l 694 868 l 868 868 l 868 174 l 694 174 z "},"Ú":{"ha":1042,"x_min":174,"x_max":868,"o":"m 347 0 l 347 174 l 174 174 l 174 868 l 347 868 l 347 174 l 694 174 l 694 0 l 347 0 m 694 174 l 694 868 l 868 868 l 868 174 l 694 174 m 347 1042 l 347 1215 l 521 1215 l 521 1389 l 694 1389 l 694 1215 l 521 1215 l 521 1042 l 347 1042 z "},"Û":{"ha":1042,"x_min":174,"x_max":868,"o":"m 347 0 l 347 174 l 174 174 l 174 868 l 347 868 l 347 174 l 694 174 l 694 0 l 347 0 m 694 174 l 694 868 l 868 868 l 868 174 l 694 174 m 260 1042 l 260 1215 l 433 1215 l 433 1389 l 607 1389 l 607 1215 l 781 1215 l 781 1042 l 607 1042 l 607 1215 l 433 1215 l 433 1042 l 260 1042 z "},"Ü":{"ha":1042,"x_min":174,"x_max":868,"o":"m 347 0 l 347 174 l 174 174 l 174 868 l 347 868 l 347 174 l 694 174 l 694 0 l 347 0 m 694 174 l 694 868 l 868 868 l 868 174 l 694 174 m 607 1042 l 607 1215 l 781 1215 l 781 1042 l 607 1042 m 260 1042 l 260 1215 l 433 1215 l 433 1042 l 260 1042 z "},"Ù":{"ha":1042,"x_min":174,"x_max":868,"o":"m 347 0 l 347 174 l 174 174 l 174 868 l 347 868 l 347 174 l 694 174 l 694 0 l 347 0 m 694 174 l 694 868 l 868 868 l 868 174 l 694 174 m 521 1042 l 521 1215 l 347 1215 l 347 1389 l 521 1389 l 521 1215 l 694 1215 l 694 1042 l 521 1042 z "},"V":{"ha":1215,"x_min":174,"x_max":1042,"o":"m 521 0 l 521 174 l 347 174 l 347 521 l 174 521 l 174 868 l 347 868 l 347 521 l 521 521 l 521 174 l 694 174 l 694 0 l 521 0 m 868 521 l 868 868 l 1042 868 l 1042 521 l 868 521 m 694 174 l 694 521 l 868 521 l 868 174 l 694 174 z "},"W":{"ha":1215,"x_min":174,"x_max":1042,"o":"m 347 0 l 347 174 l 174 174 l 174 868 l 347 868 l 347 174 l 521 174 l 521 0 l 347 0 m 868 174 l 868 868 l 1042 868 l 1042 174 l 868 174 m 694 0 l 694 174 l 521 174 l 521 694 l 694 694 l 694 174 l 868 174 l 868 0 l 694 0 z "},"X":{"ha":1215,"x_min":174,"x_max":1042,"o":"m 868 0 l 868 174 l 694 174 l 694 347 l 521 347 l 521 521 l 347 521 l 347 694 l 174 694 l 174 868 l 347 868 l 347 694 l 521 694 l 521 521 l 694 521 l 694 347 l 868 347 l 868 174 l 1042 174 l 1042 0 l 868 0 m 694 521 l 694 694 l 868 694 l 868 868 l 1042 868 l 1042 694 l 868 694 l 868 521 l 694 521 m 347 174 l 347 347 l 521 347 l 521 174 l 347 174 m 174 0 l 174 174 l 347 174 l 347 0 l 174 0 z "},"Y":{"ha":1215,"x_min":174,"x_max":1042,"o":"m 521 0 l 521 521 l 347 521 l 347 694 l 174 694 l 174 868 l 347 868 l 347 694 l 521 694 l 521 521 l 694 521 l 694 0 l 521 0 m 868 694 l 868 868 l 1042 868 l 1042 694 l 868 694 m 694 521 l 694 694 l 868 694 l 868 521 l 694 521 z "},"Ý":{"ha":1215,"x_min":174,"x_max":1042,"o":"m 521 0 l 521 521 l 347 521 l 347 694 l 174 694 l 174 868 l 347 868 l 347 694 l 521 694 l 521 521 l 694 521 l 694 0 l 521 0 m 868 694 l 868 868 l 1042 868 l 1042 694 l 868 694 m 694 521 l 694 694 l 868 694 l 868 521 l 694 521 m 435 1042 l 435 1215 l 608 1215 l 608 1389 l 782 1389 l 782 1215 l 608 1215 l 608 1042 l 435 1042 z "},"Ÿ":{"ha":1215,"x_min":174,"x_max":1042,"o":"m 521 0 l 521 521 l 347 521 l 347 694 l 174 694 l 174 868 l 347 868 l 347 694 l 521 694 l 521 521 l 694 521 l 694 0 l 521 0 m 868 694 l 868 868 l 1042 868 l 1042 694 l 868 694 m 694 521 l 694 694 l 868 694 l 868 521 l 694 521 m 694 1042 l 694 1215 l 868 1215 l 868 1042 l 694 1042 m 347 1042 l 347 1215 l 521 1215 l 521 1042 l 347 1042 z "},"Z":{"ha":868,"x_min":174,"x_max":694,"o":"m 521 521 l 521 694 l 174 694 l 174 868 l 694 868 l 694 521 l 521 521 m 347 347 l 347 521 l 521 521 l 521 347 l 347 347 m 174 0 l 174 347 l 347 347 l 347 174 l 694 174 l 694 0 l 174 0 z "},"Ž":{"ha":868,"x_min":174,"x_max":694,"o":"m 694 1215 l 521 1215 l 521 1389 l 694 1389 l 694 1215 m 347 1042 l 347 1215 l 174 1215 l 174 1389 l 347 1389 l 347 1215 l 521 1215 l 521 1042 l 347 1042 m 521 521 l 521 694 l 174 694 l 174 868 l 694 868 l 694 521 l 521 521 m 347 347 l 347 521 l 521 521 l 521 347 l 347 347 m 174 0 l 174 347 l 347 347 l 347 174 l 694 174 l 694 0 l 174 0 z "},"a":{"ha":1042,"x_min":174,"x_max":868,"o":"m 174 0 l 174 694 l 347 694 l 347 868 l 694 868 l 694 694 l 868 694 l 868 0 l 694 0 l 694 347 l 347 347 l 347 0 l 174 0 m 347 521 l 694 521 l 694 688 l 347 688 l 347 521 z "},"á":{"ha":1042,"x_min":174,"x_max":868,"o":"m 174 0 l 174 694 l 347 694 l 347 868 l 694 868 l 694 694 l 868 694 l 868 0 l 694 0 l 694 347 l 347 347 l 347 0 l 174 0 m 347 521 l 694 521 l 694 688 l 347 688 l 347 521 m 347 1042 l 347 1215 l 521 1215 l 521 1389 l 694 1389 l 694 1215 l 521 1215 l 521 1042 l 347 1042 z "},"â":{"ha":1042,"x_min":174,"x_max":868,"o":"m 174 1042 l 174 1215 l 347 1215 l 347 1389 l 694 1389 l 694 1215 l 868 1215 l 868 1042 l 694 1042 l 694 1215 l 347 1215 l 347 1042 l 174 1042 m 174 0 l 174 694 l 347 694 l 347 868 l 694 868 l 694 694 l 868 694 l 868 0 l 694 0 l 694 347 l 347 347 l 347 0 l 174 0 m 347 521 l 694 521 l 694 688 l 347 688 l 347 521 z "},"ä":{"ha":1042,"x_min":174,"x_max":868,"o":"m 694 1042 l 694 1215 l 868 1215 l 868 1042 l 694 1042 m 174 1042 l 174 1215 l 347 1215 l 347 1042 l 174 1042 m 174 0 l 174 694 l 347 694 l 347 868 l 694 868 l 694 694 l 868 694 l 868 0 l 694 0 l 694 347 l 347 347 l 347 0 l 174 0 m 347 521 l 694 521 l 694 688 l 347 688 l 347 521 z "},"à":{"ha":1042,"x_min":174,"x_max":868,"o":"m 174 0 l 174 694 l 347 694 l 347 868 l 694 868 l 694 694 l 868 694 l 868 0 l 694 0 l 694 347 l 347 347 l 347 0 l 174 0 m 347 521 l 694 521 l 694 688 l 347 688 l 347 521 m 521 1042 l 521 1215 l 347 1215 l 347 1389 l 521 1389 l 521 1215 l 694 1215 l 694 1042 l 521 1042 z "},"å":{"ha":1042,"x_min":174,"x_max":868,"o":"m 868 1215 l 694 1215 l 694 1389 l 868 1389 l 868 1215 m 347 1042 l 347 1215 l 174 1215 l 174 1389 l 347 1389 l 347 1215 l 694 1215 l 694 1042 l 347 1042 m 174 0 l 174 694 l 347 694 l 347 868 l 694 868 l 694 694 l 868 694 l 868 0 l 694 0 l 694 347 l 347 347 l 347 0 l 174 0 m 347 521 l 694 521 l 694 688 l 347 688 l 347 521 z "},"ã":{"ha":1042,"x_min":174,"x_max":868,"o":"m 174 0 l 174 694 l 347 694 l 347 868 l 694 868 l 694 694 l 868 694 l 868 0 l 694 0 l 694 347 l 347 347 l 347 0 l 174 0 m 347 521 l 694 521 l 694 688 l 347 688 l 347 521 m 868 1215 l 694 1215 l 694 1389 l 868 1389 l 868 1215 m 174 1042 l 174 1215 l 347 1215 l 347 1389 l 521 1389 l 521 1215 l 694 1215 l 694 1042 l 521 1042 l 521 1215 l 347 1215 l 347 1042 l 174 1042 z "},"æ":{"ha":1215,"x_min":174,"x_max":1042,"o":"m 174 0 l 174 694 l 347 694 l 347 868 l 1042 868 l 1042 694 l 694 694 l 694 521 l 1042 521 l 1042 347 l 694 347 l 694 174 l 1042 174 l 1042 0 l 521 0 l 521 347 l 347 347 l 347 0 l 174 0 m 347 521 l 521 521 l 521 688 l 347 688 l 347 521 z "},"b":{"ha":1042,"x_min":174,"x_max":868,"o":"m 174 0 l 174 868 l 694 868 l 694 694 l 868 694 l 868 174 l 694 174 l 694 0 l 174 0 m 347 521 l 688 521 l 688 694 l 347 694 l 347 521 m 347 174 l 688 174 l 688 347 l 347 347 l 347 174 z "},"c":{"ha":1042,"x_min":174,"x_max":868,"o":"m 694 521 l 694 694 l 347 694 l 347 868 l 694 868 l 694 694 l 868 694 l 868 521 l 694 521 m 347 0 l 347 174 l 174 174 l 174 694 l 347 694 l 347 174 l 694 174 l 694 0 l 347 0 m 694 174 l 694 347 l 868 347 l 868 174 l 694 174 z "},"ç":{"ha":1042,"x_min":174,"x_max":868,"o":"m 694 521 l 694 694 l 347 694 l 347 868 l 694 868 l 694 694 l 868 694 l 868 521 l 694 521 m 347 0 l 347 174 l 174 174 l 174 694 l 347 694 l 347 174 l 694 174 l 694 0 l 347 0 m 694 174 l 694 347 l 868 347 l 868 174 l 694 174 m 347 -174 l 347 0 l 521 0 l 521 -174 l 347 -174 m 174 -347 l 174 -174 l 347 -174 l 347 -347 l 174 -347 z "},"d":{"ha":1042,"x_min":174,"x_max":868,"o":"m 174 0 l 174 868 l 694 868 l 694 694 l 868 694 l 868 174 l 694 174 l 694 0 l 174 0 m 347 174 l 688 174 l 688 694 l 347 694 l 347 174 z "},"ð":{"ha":1215,"x_min":174,"x_max":1042,"o":"m 347 0 l 347 347 l 174 347 l 174 521 l 347 521 l 347 868 l 868 868 l 868 694 l 1042 694 l 1042 174 l 868 174 l 868 0 l 347 0 m 521 174 l 861 174 l 861 694 l 521 694 l 521 521 l 694 521 l 694 347 l 521 347 l 521 174 z "},"e":{"ha":868,"x_min":174,"x_max":694,"o":"m 174 0 l 174 868 l 694 868 l 694 694 l 347 694 l 347 521 l 694 521 l 694 347 l 347 347 l 347 174 l 694 174 l 694 0 l 174 0 z "},"é":{"ha":868,"x_min":174,"x_max":694,"o":"m 174 0 l 174 868 l 694 868 l 694 694 l 347 694 l 347 521 l 694 521 l 694 347 l 347 347 l 347 174 l 694 174 l 694 0 l 174 0 m 347 1042 l 347 1215 l 521 1215 l 521 1389 l 694 1389 l 694 1215 l 521 1215 l 521 1042 l 347 1042 z "},"ê":{"ha":868,"x_min":174,"x_max":694,"o":"m 174 0 l 174 868 l 694 868 l 694 694 l 347 694 l 347 521 l 694 521 l 694 347 l 347 347 l 347 174 l 694 174 l 694 0 l 174 0 m 174 1042 l 174 1215 l 347 1215 l 347 1389 l 521 1389 l 521 1215 l 694 1215 l 694 1042 l 521 1042 l 521 1215 l 347 1215 l 347 1042 l 174 1042 z "},"ë":{"ha":868,"x_min":174,"x_max":694,"o":"m 174 0 l 174 868 l 694 868 l 694 694 l 347 694 l 347 521 l 694 521 l 694 347 l 347 347 l 347 174 l 694 174 l 694 0 l 174 0 m 521 1042 l 521 1215 l 694 1215 l 694 1042 l 521 1042 m 174 1042 l 174 1215 l 347 1215 l 347 1042 l 174 1042 z "},"è":{"ha":868,"x_min":174,"x_max":694,"o":"m 174 0 l 174 868 l 694 868 l 694 694 l 347 694 l 347 521 l 694 521 l 694 347 l 347 347 l 347 174 l 694 174 l 694 0 l 174 0 m 347 1042 l 347 1215 l 174 1215 l 174 1389 l 347 1389 l 347 1215 l 521 1215 l 521 1042 l 347 1042 z "},"f":{"ha":868,"x_min":174,"x_max":694,"o":"m 174 0 l 174 868 l 694 868 l 694 694 l 347 694 l 347 521 l 694 521 l 694 347 l 347 347 l 347 0 l 174 0 z "},"g":{"ha":1042,"x_min":174,"x_max":868,"o":"m 347 694 l 347 868 l 868 868 l 868 694 l 347 694 m 174 174 l 174 694 l 347 694 l 347 174 l 174 174 m 694 174 l 694 347 l 521 347 l 521 521 l 868 521 l 868 174 l 694 174 m 347 0 l 347 174 l 694 174 l 694 0 l 347 0 z "},"h":{"ha":1042,"x_min":174,"x_max":868,"o":"m 174 0 l 174 868 l 347 868 l 347 521 l 694 521 l 694 868 l 868 868 l 868 0 l 694 0 l 694 347 l 347 347 l 347 0 l 174 0 z "},"i":{"ha":521,"x_min":174,"x_max":347,"o":"m 174 0 l 174 868 l 347 868 l 347 0 l 174 0 z "},"í":{"ha":521,"x_min":174,"x_max":521,"o":"m 174 1042 l 174 1215 l 347 1215 l 347 1389 l 521 1389 l 521 1215 l 347 1215 l 347 1042 l 174 1042 m 174 0 l 174 868 l 347 868 l 347 0 l 174 0 z "},"î":{"ha":521,"x_min":0,"x_max":521,"o":"m 0 1042 l 0 1215 l 174 1215 l 174 1389 l 347 1389 l 347 1215 l 521 1215 l 521 1042 l 347 1042 l 347 1215 l 174 1215 l 174 1042 l 0 1042 m 174 0 l 174 868 l 347 868 l 347 0 l 174 0 z "},"ï":{"ha":521,"x_min":0,"x_max":521,"o":"m 0 1042 l 0 1215 l 174 1215 l 174 1042 l 0 1042 m 347 1042 l 347 1215 l 521 1215 l 521 1042 l 347 1042 m 174 0 l 174 868 l 347 868 l 347 0 l 174 0 z "},"ì":{"ha":521,"x_min":0,"x_max":347,"o":"m 174 1042 l 174 1215 l 0 1215 l 0 1389 l 174 1389 l 174 1215 l 347 1215 l 347 1042 l 174 1042 m 174 0 l 174 868 l 347 868 l 347 0 l 174 0 z "},"j":{"ha":1042,"x_min":174,"x_max":868,"o":"m 694 174 l 694 868 l 868 868 l 868 174 l 694 174 m 347 0 l 347 174 l 174 174 l 174 347 l 347 347 l 347 174 l 694 174 l 694 0 l 347 0 z "},"k":{"ha":1042,"x_min":174,"x_max":868,"o":"m 174 0 l 174 868 l 347 868 l 347 521 l 521 521 l 521 347 l 694 347 l 694 174 l 868 174 l 868 0 l 694 0 l 694 174 l 521 174 l 521 347 l 347 347 l 347 0 l 174 0 m 694 694 l 694 868 l 868 868 l 868 694 l 694 694 m 521 521 l 521 694 l 694 694 l 694 521 l 521 521 z "},"l":{"ha":868,"x_min":174,"x_max":694,"o":"m 174 0 l 174 868 l 347 868 l 347 174 l 694 174 l 694 0 l 174 0 z "},"m":{"ha":1215,"x_min":174,"x_max":1042,"o":"m 174 0 l 174 868 l 347 868 l 347 694 l 521 694 l 521 521 l 694 521 l 694 347 l 521 347 l 521 521 l 347 521 l 347 0 l 174 0 m 868 0 l 868 521 l 694 521 l 694 694 l 868 694 l 868 868 l 1042 868 l 1042 0 l 868 0 z "},"n":{"ha":1215,"x_min":174,"x_max":1042,"o":"m 174 0 l 174 868 l 347 868 l 347 694 l 521 694 l 521 521 l 694 521 l 694 347 l 868 347 l 868 868 l 1042 868 l 1042 0 l 868 0 l 868 174 l 694 174 l 694 347 l 521 347 l 521 521 l 347 521 l 347 0 l 174 0 z "},"ñ":{"ha":1215,"x_min":174,"x_max":1042,"o":"m 174 0 l 174 868 l 347 868 l 347 694 l 521 694 l 521 521 l 694 521 l 694 347 l 868 347 l 868 868 l 1042 868 l 1042 0 l 868 0 l 868 174 l 694 174 l 694 347 l 521 347 l 521 521 l 347 521 l 347 0 l 174 0 m 1042 1215 l 868 1215 l 868 1389 l 1042 1389 l 1042 1215 m 347 1042 l 347 1215 l 521 1215 l 521 1389 l 694 1389 l 694 1215 l 868 1215 l 868 1042 l 694 1042 l 694 1215 l 521 1215 l 521 1042 l 347 1042 z "},"o":{"ha":1042,"x_min":174,"x_max":868,"o":"m 347 0 l 347 174 l 174 174 l 174 694 l 347 694 l 347 868 l 694 868 l 694 694 l 868 694 l 868 174 l 694 174 l 694 0 l 347 0 m 347 181 l 694 181 l 694 688 l 347 688 l 347 181 z "},"ó":{"ha":1042,"x_min":174,"x_max":868,"o":"m 347 0 l 347 174 l 174 174 l 174 694 l 347 694 l 347 868 l 694 868 l 694 694 l 868 694 l 868 174 l 694 174 l 694 0 l 347 0 m 347 181 l 694 181 l 694 688 l 347 688 l 347 181 m 347 1042 l 347 1215 l 521 1215 l 521 1389 l 694 1389 l 694 1215 l 521 1215 l 521 1042 l 347 1042 z "},"ô":{"ha":1042,"x_min":174,"x_max":868,"o":"m 174 1042 l 174 1215 l 347 1215 l 347 1389 l 694 1389 l 694 1215 l 868 1215 l 868 1042 l 694 1042 l 694 1215 l 347 1215 l 347 1042 l 174 1042 m 347 0 l 347 174 l 174 174 l 174 694 l 347 694 l 347 868 l 694 868 l 694 694 l 868 694 l 868 174 l 694 174 l 694 0 l 347 0 m 347 181 l 694 181 l 694 688 l 347 688 l 347 181 z "},"ö":{"ha":1042,"x_min":174,"x_max":868,"o":"m 694 1042 l 694 1215 l 868 1215 l 868 1042 l 694 1042 m 174 1042 l 174 1215 l 347 1215 l 347 1042 l 174 1042 m 347 0 l 347 174 l 174 174 l 174 694 l 347 694 l 347 868 l 694 868 l 694 694 l 868 694 l 868 174 l 694 174 l 694 0 l 347 0 m 347 181 l 694 181 l 694 688 l 347 688 l 347 181 z "},"ò":{"ha":1042,"x_min":174,"x_max":868,"o":"m 347 0 l 347 174 l 174 174 l 174 694 l 347 694 l 347 868 l 694 868 l 694 694 l 868 694 l 868 174 l 694 174 l 694 0 l 347 0 m 347 181 l 694 181 l 694 688 l 347 688 l 347 181 m 521 1042 l 521 1215 l 347 1215 l 347 1389 l 521 1389 l 521 1215 l 694 1215 l 694 1042 l 521 1042 z "},"ø":{"ha":1215,"x_min":174,"x_max":1042,"o":"m 347 0 l 347 174 l 174 174 l 174 694 l 347 694 l 347 868 l 868 868 l 868 694 l 1042 694 l 1042 174 l 868 174 l 868 0 l 347 0 m 347 347 l 521 347 l 521 181 l 868 181 l 868 521 l 694 521 l 694 347 l 521 347 l 521 521 l 694 521 l 694 688 l 347 688 l 347 347 z "},"õ":{"ha":1042,"x_min":174,"x_max":868,"o":"m 347 0 l 347 174 l 174 174 l 174 694 l 347 694 l 347 868 l 694 868 l 694 694 l 868 694 l 868 174 l 694 174 l 694 0 l 347 0 m 347 181 l 694 181 l 694 688 l 347 688 l 347 181 m 868 1215 l 694 1215 l 694 1389 l 868 1389 l 868 1215 m 174 1042 l 174 1215 l 347 1215 l 347 1389 l 521 1389 l 521 1215 l 694 1215 l 694 1042 l 521 1042 l 521 1215 l 347 1215 l 347 1042 l 174 1042 z "},"œ":{"ha":1215,"x_min":174,"x_max":1042,"o":"m 347 0 l 347 174 l 174 174 l 174 694 l 347 694 l 347 868 l 1042 868 l 1042 694 l 694 694 l 694 521 l 1042 521 l 1042 347 l 694 347 l 694 174 l 1042 174 l 1042 0 l 347 0 m 354 175 l 521 175 l 521 696 l 354 696 l 354 175 z "},"p":{"ha":1042,"x_min":174,"x_max":868,"o":"m 174 0 l 174 868 l 694 868 l 694 694 l 868 694 l 868 521 l 694 521 l 694 347 l 347 347 l 347 0 l 174 0 m 347 521 l 688 521 l 688 694 l 347 694 l 347 521 z "},"þ":{"ha":868,"x_min":174,"x_max":694,"o":"m 174 0 l 174 868 l 347 868 l 347 694 l 521 694 l 521 521 l 694 521 l 694 347 l 521 347 l 521 174 l 347 174 l 347 0 l 174 0 m 347 347 l 514 347 l 514 521 l 347 521 l 347 347 z "},"q":{"ha":1042,"x_min":174,"x_max":868,"o":"m 694 -174 l 694 0 l 347 0 l 347 174 l 174 174 l 174 694 l 347 694 l 347 868 l 694 868 l 694 694 l 868 694 l 868 174 l 694 174 l 694 0 l 868 0 l 868 -174 l 694 -174 m 347 181 l 694 181 l 694 688 l 347 688 l 347 181 z "},"r":{"ha":1042,"x_min":174,"x_max":868,"o":"m 174 0 l 174 868 l 694 868 l 694 694 l 868 694 l 868 521 l 694 521 l 694 174 l 868 174 l 868 0 l 694 0 l 694 174 l 521 174 l 521 347 l 347 347 l 347 0 l 174 0 m 347 521 l 688 521 l 688 694 l 347 694 l 347 521 z "},"s":{"ha":1042,"x_min":174,"x_max":868,"o":"m 347 694 l 347 868 l 868 868 l 868 694 l 347 694 m 694 174 l 694 347 l 347 347 l 347 521 l 174 521 l 174 694 l 347 694 l 347 521 l 694 521 l 694 347 l 868 347 l 868 174 l 694 174 m 174 0 l 174 174 l 694 174 l 694 0 l 174 0 z "},"š":{"ha":1042,"x_min":174,"x_max":868,"o":"m 868 1215 l 694 1215 l 694 1389 l 868 1389 l 868 1215 m 347 1042 l 347 1215 l 174 1215 l 174 1389 l 347 1389 l 347 1215 l 694 1215 l 694 1042 l 347 1042 m 347 694 l 347 868 l 868 868 l 868 694 l 347 694 m 694 174 l 694 347 l 347 347 l 347 521 l 174 521 l 174 694 l 347 694 l 347 521 l 694 521 l 694 347 l 868 347 l 868 174 l 694 174 m 174 0 l 174 174 l 694 174 l 694 0 l 174 0 z "},"ß":{"ha":1042,"x_min":174,"x_max":868,"o":"m 174 0 l 174 694 l 347 694 l 347 868 l 694 868 l 694 694 l 868 694 l 868 521 l 694 521 l 694 347 l 868 347 l 868 174 l 694 174 l 694 0 l 521 0 l 521 174 l 694 174 l 694 347 l 521 347 l 521 521 l 694 521 l 694 694 l 347 694 l 347 0 l 174 0 z "},"t":{"ha":868,"x_min":174,"x_max":694,"o":"m 347 0 l 347 694 l 174 694 l 174 868 l 694 868 l 694 694 l 521 694 l 521 0 l 347 0 z "},"u":{"ha":1042,"x_min":174,"x_max":868,"o":"m 347 0 l 347 174 l 174 174 l 174 868 l 347 868 l 347 174 l 694 174 l 694 0 l 347 0 m 694 174 l 694 868 l 868 868 l 868 174 l 694 174 z "},"ú":{"ha":1042,"x_min":174,"x_max":868,"o":"m 347 0 l 347 174 l 174 174 l 174 868 l 347 868 l 347 174 l 694 174 l 694 0 l 347 0 m 694 174 l 694 868 l 868 868 l 868 174 l 694 174 m 347 1042 l 347 1215 l 521 1215 l 521 1389 l 694 1389 l 694 1215 l 521 1215 l 521 1042 l 347 1042 z "},"û":{"ha":1042,"x_min":174,"x_max":868,"o":"m 174 1042 l 174 1215 l 347 1215 l 347 1389 l 694 1389 l 694 1215 l 868 1215 l 868 1042 l 694 1042 l 694 1215 l 347 1215 l 347 1042 l 174 1042 m 347 0 l 347 174 l 174 174 l 174 868 l 347 868 l 347 174 l 694 174 l 694 0 l 347 0 m 694 174 l 694 868 l 868 868 l 868 174 l 694 174 z "},"ü":{"ha":1042,"x_min":174,"x_max":868,"o":"m 694 1042 l 694 1215 l 868 1215 l 868 1042 l 694 1042 m 174 1042 l 174 1215 l 347 1215 l 347 1042 l 174 1042 m 347 0 l 347 174 l 174 174 l 174 868 l 347 868 l 347 174 l 694 174 l 694 0 l 347 0 m 694 174 l 694 868 l 868 868 l 868 174 l 694 174 z "},"ù":{"ha":1042,"x_min":174,"x_max":868,"o":"m 347 0 l 347 174 l 174 174 l 174 868 l 347 868 l 347 174 l 694 174 l 694 0 l 347 0 m 694 174 l 694 868 l 868 868 l 868 174 l 694 174 m 521 1042 l 521 1215 l 347 1215 l 347 1389 l 521 1389 l 521 1215 l 694 1215 l 694 1042 l 521 1042 z "},"v":{"ha":1215,"x_min":174,"x_max":1042,"o":"m 521 0 l 521 174 l 347 174 l 347 521 l 174 521 l 174 868 l 347 868 l 347 521 l 521 521 l 521 174 l 694 174 l 694 0 l 521 0 m 868 521 l 868 868 l 1042 868 l 1042 521 l 868 521 m 694 174 l 694 521 l 868 521 l 868 174 l 694 174 z "},"w":{"ha":1215,"x_min":174,"x_max":1042,"o":"m 347 0 l 347 174 l 174 174 l 174 868 l 347 868 l 347 174 l 521 174 l 521 0 l 347 0 m 868 174 l 868 868 l 1042 868 l 1042 174 l 868 174 m 694 0 l 694 174 l 521 174 l 521 694 l 694 694 l 694 174 l 868 174 l 868 0 l 694 0 z "},"x":{"ha":1215,"x_min":174,"x_max":1042,"o":"m 868 0 l 868 174 l 694 174 l 694 347 l 521 347 l 521 521 l 347 521 l 347 694 l 174 694 l 174 868 l 347 868 l 347 694 l 521 694 l 521 521 l 694 521 l 694 347 l 868 347 l 868 174 l 1042 174 l 1042 0 l 868 0 m 694 521 l 694 694 l 868 694 l 868 868 l 1042 868 l 1042 694 l 868 694 l 868 521 l 694 521 m 347 174 l 347 347 l 521 347 l 521 174 l 347 174 m 174 0 l 174 174 l 347 174 l 347 0 l 174 0 z "},"y":{"ha":1215,"x_min":174,"x_max":1042,"o":"m 521 0 l 521 521 l 347 521 l 347 694 l 174 694 l 174 868 l 347 868 l 347 694 l 521 694 l 521 521 l 694 521 l 694 0 l 521 0 m 868 694 l 868 868 l 1042 868 l 1042 694 l 868 694 m 694 521 l 694 694 l 868 694 l 868 521 l 694 521 z "},"ý":{"ha":1215,"x_min":174,"x_max":1042,"o":"m 521 0 l 521 521 l 347 521 l 347 694 l 174 694 l 174 868 l 347 868 l 347 694 l 521 694 l 521 521 l 694 521 l 694 0 l 521 0 m 868 694 l 868 868 l 1042 868 l 1042 694 l 868 694 m 694 521 l 694 694 l 868 694 l 868 521 l 694 521 m 521 1042 l 521 1215 l 694 1215 l 694 1389 l 868 1389 l 868 1215 l 694 1215 l 694 1042 l 521 1042 z "},"ÿ":{"ha":1215,"x_min":174,"x_max":1042,"o":"m 521 0 l 521 521 l 347 521 l 347 694 l 174 694 l 174 868 l 347 868 l 347 694 l 521 694 l 521 521 l 694 521 l 694 0 l 521 0 m 868 694 l 868 868 l 1042 868 l 1042 694 l 868 694 m 694 521 l 694 694 l 868 694 l 868 521 l 694 521 m 694 1042 l 694 1215 l 868 1215 l 868 1042 l 694 1042 m 347 1042 l 347 1215 l 521 1215 l 521 1042 l 347 1042 z "},"z":{"ha":868,"x_min":174,"x_max":694,"o":"m 521 521 l 521 694 l 174 694 l 174 868 l 694 868 l 694 521 l 521 521 m 347 347 l 347 521 l 521 521 l 521 347 l 347 347 m 174 0 l 174 347 l 347 347 l 347 174 l 694 174 l 694 0 l 174 0 z "},"ž":{"ha":868,"x_min":174,"x_max":694,"o":"m 694 1215 l 521 1215 l 521 1389 l 694 1389 l 694 1215 m 347 1042 l 347 1215 l 174 1215 l 174 1389 l 347 1389 l 347 1215 l 521 1215 l 521 1042 l 347 1042 m 521 521 l 521 694 l 174 694 l 174 868 l 694 868 l 694 521 l 521 521 m 347 347 l 347 521 l 521 521 l 521 347 l 347 347 m 174 0 l 174 347 l 347 347 l 347 174 l 694 174 l 694 0 l 174 0 z "},"ª":{"ha":868,"x_min":174,"x_max":694,"o":"m 347 347 l 347 521 l 174 521 l 174 694 l 347 694 l 347 868 l 521 868 l 521 694 l 694 694 l 694 347 l 347 347 m 354 521 l 521 521 l 521 688 l 354 688 l 354 521 z "},"º":{"ha":868,"x_min":174,"x_max":694,"o":"m 347 347 l 347 521 l 174 521 l 174 694 l 347 694 l 347 868 l 521 868 l 521 694 l 694 694 l 694 521 l 521 521 l 521 347 l 347 347 m 354 528 l 514 528 l 514 688 l 354 688 l 354 528 z "},"¹":{"ha":694,"x_min":174,"x_max":521,"o":"m 347 174 l 347 694 l 174 694 l 174 868 l 521 868 l 521 174 l 347 174 z "},"²":{"ha":868,"x_min":174,"x_max":694,"o":"m 174 174 l 174 347 l 347 347 l 347 521 l 521 521 l 521 694 l 174 694 l 174 868 l 521 868 l 521 694 l 694 694 l 694 521 l 521 521 l 521 347 l 694 347 l 694 174 l 174 174 z "},"³":{"ha":868,"x_min":174,"x_max":694,"o":"m 174 174 l 174 347 l 521 347 l 521 521 l 347 521 l 347 694 l 174 694 l 174 868 l 521 868 l 521 694 l 694 694 l 694 174 l 174 174 z "},"½":{"ha":1563,"x_min":174,"x_max":1389,"o":"m 868 0 l 868 174 l 1042 174 l 1042 347 l 1215 347 l 1215 521 l 694 521 l 694 868 l 868 868 l 868 693 l 1215 694 l 1215 521 l 1389 521 l 1389 347 l 1215 347 l 1215 174 l 1389 174 l 1389 0 l 868 0 m 174 347 l 174 868 l 347 868 l 347 347 l 174 347 m 521 347 l 521 521 l 694 521 l 694 347 l 521 347 m 347 0 l 347 347 l 521 347 l 521 0 l 347 0 z "},"¼":{"ha":1563,"x_min":174,"x_max":1389,"o":"m 174 347 l 174 868 l 347 868 l 347 347 l 174 347 m 694 521 l 694 868 l 868 868 l 868 521 l 694 521 m 1215 0 l 1215 174 l 868 174 l 868 521 l 1042 521 l 1042 347 l 1215 347 l 1215 521 l 1389 521 l 1389 0 l 1215 0 m 521 347 l 521 521 l 694 521 l 694 347 l 521 347 m 347 0 l 347 347 l 521 347 l 521 0 l 347 0 z "},"¾":{"ha":1736,"x_min":174,"x_max":1563,"o":"m 868 521 l 868 868 l 1042 868 l 1042 521 l 868 521 m 521 0 l 521 174 l 174 174 l 174 347 l 521 347 l 521 521 l 347 521 l 347 694 l 174 694 l 174 868 l 521 868 l 521 694 l 694 694 l 694 521 l 868 521 l 868 347 l 694 347 l 694 0 l 521 0 m 1389 0 l 1389 174 l 1042 174 l 1042 521 l 1215 521 l 1215 347 l 1389 347 l 1389 521 l 1563 521 l 1563 0 l 1389 0 z "},"\r":{"ha":694,"x_min":0,"x_max":0,"o":""}," ":{"ha":694,"x_min":0,"x_max":0,"o":""}," ":{"ha":694,"x_min":0,"x_max":0,"o":""},".":{"ha":521,"x_min":174,"x_max":347,"o":"m 174 0 l 174 174 l 347 174 l 347 0 l 174 0 z "},",":{"ha":694,"x_min":174,"x_max":521,"o":"m 347 0 l 347 174 l 521 174 l 521 0 l 347 0 m 174 -174 l 174 0 l 347 0 l 347 -174 l 174 -174 z "},":":{"ha":521,"x_min":174,"x_max":347,"o":"m 174 521 l 174 694 l 347 694 l 347 521 l 174 521 m 174 174 l 174 347 l 347 347 l 347 174 l 174 174 z "},";":{"ha":694,"x_min":174,"x_max":521,"o":"m 347 521 l 347 694 l 521 694 l 521 521 l 347 521 m 347 174 l 347 347 l 521 347 l 521 174 l 347 174 m 174 0 l 174 174 l 347 174 l 347 0 l 174 0 z "},"…":{"ha":1215,"x_min":174,"x_max":1042,"o":"m 868 0 l 868 174 l 1042 174 l 1042 0 l 868 0 m 174 0 l 174 174 l 347 174 l 347 0 l 174 0 m 521 0 l 521 174 l 694 174 l 694 0 l 521 0 z "},"!":{"ha":521,"x_min":174,"x_max":347,"o":"m 174 347 l 174 868 l 347 868 l 347 347 l 174 347 m 174 0 l 174 174 l 347 174 l 347 0 l 174 0 z "},"¡":{"ha":521,"x_min":174,"x_max":347,"o":"m 174 694 l 174 868 l 347 868 l 347 694 l 174 694 m 174 0 l 174 521 l 347 521 l 347 0 l 174 0 z "},"?":{"ha":1042,"x_min":174,"x_max":868,"o":"m 694 521 l 694 694 l 174 694 l 174 868 l 694 868 l 694 694 l 868 694 l 868 521 l 694 521 m 347 347 l 347 521 l 694 521 l 694 347 l 347 347 m 347 0 l 347 174 l 521 174 l 521 0 l 347 0 z "},"¿":{"ha":1042,"x_min":174,"x_max":868,"o":"m 521 694 l 521 868 l 694 868 l 694 694 l 521 694 m 347 347 l 347 521 l 694 521 l 694 347 l 347 347 m 347 0 l 347 174 l 174 174 l 174 347 l 347 347 l 347 174 l 868 174 l 868 0 l 347 0 z "},"·":{"ha":521,"x_min":174,"x_max":347,"o":"m 174 347 l 174 521 l 347 521 l 347 347 l 174 347 z "},"•":{"ha":521,"x_min":174,"x_max":347,"o":"m 174 347 l 174 521 l 347 521 l 347 347 l 174 347 z "},"*":{"ha":1215,"x_min":174,"x_max":1042,"o":"m 521 0 l 521 347 l 347 347 l 347 174 l 174 174 l 174 347 l 347 347 l 347 521 l 174 521 l 174 694 l 347 694 l 347 521 l 521 521 l 521 868 l 694 868 l 694 521 l 868 521 l 868 347 l 1042 347 l 1042 174 l 868 174 l 868 347 l 694 347 l 694 0 l 521 0 m 868 521 l 868 694 l 1042 694 l 1042 521 l 868 521 z "},"#":{"ha":1215,"x_min":174,"x_max":1042,"o":"m 347 0 l 347 174 l 174 174 l 174 347 l 347 347 l 347 521 l 174 521 l 174 694 l 347 694 l 347 868 l 521 868 l 521 694 l 694 694 l 694 868 l 868 868 l 868 694 l 1042 694 l 1042 521 l 868 521 l 868 347 l 1042 347 l 1042 174 l 868 174 l 868 0 l 694 0 l 694 174 l 521 174 l 521 0 l 347 0 m 521 347 l 694 347 l 694 521 l 521 521 l 521 347 z "},"/":{"ha":868,"x_min":174,"x_max":694,"o":"m 521 521 l 521 868 l 694 868 l 694 521 l 521 521 m 347 347 l 347 521 l 521 521 l 521 347 l 347 347 m 174 0 l 174 347 l 347 347 l 347 0 l 174 0 z "},"\\":{"ha":868,"x_min":174,"x_max":694,"o":"m 521 0 l 521 347 l 347 347 l 347 521 l 174 521 l 174 868 l 347 868 l 347 521 l 521 521 l 521 347 l 694 347 l 694 0 l 521 0 z "},"-":{"ha":868,"x_min":174,"x_max":694,"o":"m 174 347 l 174 521 l 694 521 l 694 347 l 174 347 z "},"­":{"ha":0,"x_min":-260,"x_max":261,"o":"m -260 347 l -260 521 l 261 521 l 261 347 l -260 347 z "},"–":{"ha":1042,"x_min":174,"x_max":868,"o":"m 174 347 l 174 521 l 868 521 l 868 347 l 174 347 z "},"—":{"ha":1389,"x_min":174,"x_max":1215,"o":"m 174 347 l 174 521 l 1215 521 l 1215 347 l 174 347 z "},"_":{"ha":1042,"x_min":174,"x_max":868,"o":"m 174 -174 l 174 0 l 868 0 l 868 -174 l 174 -174 z "},"(":{"ha":694,"x_min":174,"x_max":521,"o":"m 347 694 l 347 868 l 521 868 l 521 694 l 347 694 m 347 0 l 347 174 l 174 174 l 174 694 l 347 694 l 347 174 l 521 174 l 521 0 l 347 0 z "},")":{"ha":694,"x_min":174,"x_max":521,"o":"m 347 174 l 347 694 l 174 694 l 174 868 l 347 868 l 347 694 l 521 694 l 521 174 l 347 174 m 174 0 l 174 174 l 347 174 l 347 0 l 174 0 z "},"{":{"ha":868,"x_min":174,"x_max":694,"o":"m 347 0 l 347 347 l 174 347 l 174 521 l 347 521 l 347 868 l 694 868 l 694 694 l 521 694 l 521 521 l 347 521 l 347 347 l 521 347 l 521 174 l 694 174 l 694 0 l 347 0 z "},"}":{"ha":868,"x_min":174,"x_max":694,"o":"m 174 0 l 174 174 l 347 174 l 347 347 l 521 347 l 521 521 l 347 521 l 347 694 l 174 694 l 174 868 l 521 868 l 521 521 l 694 521 l 694 347 l 521 347 l 521 0 l 174 0 z "},"[":{"ha":694,"x_min":174,"x_max":521,"o":"m 174 0 l 174 868 l 521 868 l 521 694 l 347 694 l 347 174 l 521 174 l 521 0 l 174 0 z "},"]":{"ha":694,"x_min":174,"x_max":521,"o":"m 174 0 l 174 174 l 347 174 l 347 694 l 174 694 l 174 868 l 521 868 l 521 0 l 174 0 z "},"‚":{"ha":694,"x_min":174,"x_max":521,"o":"m 347 0 l 347 174 l 521 174 l 521 0 l 347 0 m 174 -174 l 174 0 l 347 0 l 347 -174 l 174 -174 z "},"„":{"ha":868,"x_min":174,"x_max":694,"o":"m 521 0 l 521 347 l 694 347 l 694 0 l 521 0 m 174 0 l 174 347 l 347 347 l 347 0 l 174 0 z "},"“":{"ha":868,"x_min":174,"x_max":694,"o":"m 521 521 l 521 868 l 694 868 l 694 521 l 521 521 m 174 521 l 174 868 l 347 868 l 347 521 l 174 521 z "},"”":{"ha":868,"x_min":174,"x_max":694,"o":"m 521 521 l 521 868 l 694 868 l 694 521 l 521 521 m 174 521 l 174 868 l 347 868 l 347 521 l 174 521 z "},"‘":{"ha":521,"x_min":174,"x_max":347,"o":"m 174 521 l 174 868 l 347 868 l 347 521 l 174 521 z "},"’":{"ha":521,"x_min":174,"x_max":347,"o":"m 174 521 l 174 868 l 347 868 l 347 521 l 174 521 z "},"«":{"ha":1215,"x_min":174,"x_max":1042,"o":"m 868 174 l 868 347 l 694 347 l 694 521 l 868 521 l 868 694 l 1042 694 l 1042 521 l 868 521 l 868 347 l 1042 347 l 1042 174 l 868 174 m 347 174 l 347 347 l 174 347 l 174 521 l 347 521 l 347 694 l 521 694 l 521 521 l 347 521 l 347 347 l 521 347 l 521 174 l 347 174 z "},"»":{"ha":1215,"x_min":174,"x_max":1042,"o":"m 694 172 l 694 346 l 868 346 l 868 519 l 694 519 l 694 693 l 868 693 l 868 519 l 1042 519 l 1042 346 l 868 346 l 868 172 l 694 172 m 174 172 l 174 346 l 347 346 l 347 519 l 174 519 l 174 693 l 347 693 l 347 519 l 521 519 l 521 346 l 347 346 l 347 172 l 174 172 z "},"‹":{"ha":694,"x_min":174,"x_max":521,"o":"m 347 174 l 347 347 l 174 347 l 174 521 l 347 521 l 347 694 l 521 694 l 521 521 l 347 521 l 347 347 l 521 347 l 521 174 l 347 174 z "},"›":{"ha":694,"x_min":174,"x_max":521,"o":"m 174 174 l 174 347 l 347 347 l 347 521 l 174 521 l 174 694 l 347 694 l 347 521 l 521 521 l 521 347 l 347 347 l 347 174 l 174 174 z "},"\"":{"ha":868,"x_min":174,"x_max":694,"o":"m 521 521 l 521 868 l 694 868 l 694 521 l 521 521 m 174 521 l 174 868 l 347 868 l 347 521 l 174 521 z "},"'":{"ha":521,"x_min":174,"x_max":347,"o":"m 174 521 l 174 868 l 347 868 l 347 521 l 174 521 z "},"ƒ":{"ha":1215,"x_min":174,"x_max":1042,"o":"m 174 -174 l 174 0 l 347 0 l 347 521 l 521 521 l 521 868 l 1042 868 l 1042 694 l 694 694 l 694 521 l 868 521 l 868 347 l 521 347 l 521 0 l 347 0 l 347 -174 l 174 -174 z "},"@":{"ha":1215,"x_min":174,"x_max":1042,"o":"m 521 347 l 521 694 l 347 694 l 347 868 l 868 868 l 868 694 l 1042 694 l 1042 521 l 868 521 l 868 347 l 521 347 m 347 0 l 347 174 l 174 174 l 174 694 l 347 694 l 347 174 l 868 174 l 868 0 l 347 0 m 694 521 l 861 521 l 861 694 l 694 694 l 694 521 z "},"&":{"ha":1042,"x_min":174,"x_max":868,"o":"m 521 -174 l 521 0 l 347 0 l 347 174 l 174 174 l 174 347 l 347 347 l 347 521 l 174 521 l 174 694 l 347 694 l 347 868 l 521 868 l 521 1042 l 694 1042 l 694 868 l 868 868 l 868 694 l 347 694 l 347 521 l 694 521 l 694 347 l 347 347 l 347 174 l 868 174 l 868 0 l 694 0 l 694 -174 l 521 -174 z "},"¶":{"ha":1215,"x_min":174,"x_max":1042,"o":"m 521 0 l 521 347 l 347 347 l 347 521 l 174 521 l 174 694 l 347 694 l 347 868 l 1042 868 l 1042 0 l 868 0 l 868 347 l 694 347 l 694 0 l 521 0 m 354 521 l 521 521 l 521 694 l 354 694 l 354 521 m 694 521 l 868 521 l 868 694 l 694 694 l 694 521 z "},"§":{"ha":1042,"x_min":174,"x_max":868,"o":"m 347 -174 l 347 0 l 694 0 l 694 174 l 347 174 l 347 347 l 174 347 l 174 521 l 347 521 l 347 694 l 174 694 l 174 868 l 347 868 l 347 1042 l 694 1042 l 694 868 l 347 868 l 347 694 l 694 694 l 694 521 l 868 521 l 868 347 l 694 347 l 694 174 l 868 174 l 868 0 l 694 0 l 694 -174 l 347 -174 m 354 347 l 688 347 l 688 521 l 354 521 l 354 347 z "},"©":{"ha":1563,"x_min":174,"x_max":1389,"o":"m 347 -174 l 347 0 l 174 0 l 174 868 l 347 868 l 347 1042 l 1215 1042 l 1215 868 l 1389 868 l 1389 0 l 1215 0 l 1215 -174 l 347 -174 m 354 0 l 1208 0 l 1208 868 l 354 868 l 354 0 m 521 174 l 521 694 l 1042 694 l 1042 521 l 694 521 l 694 347 l 1042 347 l 1042 174 l 521 174 z "},"®":{"ha":1563,"x_min":174,"x_max":1389,"o":"m 347 -174 l 347 0 l 174 0 l 174 868 l 347 868 l 347 1042 l 1215 1042 l 1215 868 l 1389 868 l 1389 0 l 1215 0 l 1215 -174 l 347 -174 m 354 0 l 1208 0 l 1208 868 l 354 868 l 354 0 m 521 174 l 521 521 l 694 521 l 694 694 l 1042 694 l 1042 521 l 694 521 l 694 174 l 521 174 z "},"™":{"ha":1736,"x_min":174,"x_max":1563,"o":"m 347 521 l 347 868 l 174 868 l 174 1042 l 1042 1042 l 1042 868 l 1215 868 l 1215 1042 l 1563 1042 l 1563 521 l 1389 521 l 1389 868 l 1215 868 l 1215 521 l 1042 521 l 1042 868 l 868 868 l 868 521 l 694 521 l 694 868 l 521 868 l 521 521 l 347 521 z "},"°":{"ha":868,"x_min":174,"x_max":694,"o":"m 347 347 l 347 521 l 174 521 l 174 694 l 347 694 l 347 868 l 521 868 l 521 694 l 694 694 l 694 521 l 521 521 l 521 347 l 347 347 m 354 528 l 514 528 l 514 688 l 354 688 l 354 528 z "},"|":{"ha":521,"x_min":174,"x_max":347,"o":"m 174 -174 l 174 1042 l 347 1042 l 347 -174 l 174 -174 z "},"¦":{"ha":521,"x_min":174,"x_max":347,"o":"m 174 521 l 174 868 l 347 868 l 347 521 l 174 521 m 174 0 l 174 347 l 347 347 l 347 0 l 174 0 z "},"†":{"ha":868,"x_min":174,"x_max":694,"o":"m 347 0 l 347 521 l 174 521 l 174 694 l 347 694 l 347 868 l 521 868 l 521 694 l 694 694 l 694 521 l 521 521 l 521 0 l 347 0 z "},"‡":{"ha":868,"x_min":174,"x_max":694,"o":"m 347 0 l 347 174 l 174 174 l 174 347 l 347 347 l 347 521 l 174 521 l 174 694 l 347 694 l 347 868 l 521 868 l 521 694 l 694 694 l 694 521 l 521 521 l 521 347 l 694 347 l 694 174 l 521 174 l 521 0 l 347 0 z "},"¢":{"ha":868,"x_min":174,"x_max":694,"o":"m 347 0 l 347 174 l 174 174 l 174 694 l 347 694 l 347 868 l 521 868 l 521 694 l 694 694 l 694 521 l 347 521 l 347 347 l 694 347 l 694 174 l 521 174 l 521 0 l 347 0 z "},"¤":{"ha":1215,"x_min":174,"x_max":1042,"o":"m 1042 694 l 868 694 l 868 868 l 1042 868 l 1042 694 m 174 0 l 174 174 l 347 174 l 347 694 l 174 694 l 174 868 l 347 868 l 347 694 l 521 694 l 521 868 l 694 868 l 694 694 l 868 694 l 868 174 l 1042 174 l 1042 0 l 868 0 l 868 174 l 694 174 l 694 0 l 521 0 l 521 174 l 347 174 l 347 0 l 174 0 m 521 181 l 694 181 l 694 688 l 521 688 l 521 181 z "},"$":{"ha":1042,"x_min":174,"x_max":868,"o":"m 347 694 l 347 868 l 521 868 l 521 1042 l 694 1042 l 694 868 l 868 868 l 868 694 l 347 694 m 347 -174 l 347 0 l 174 0 l 174 174 l 694 174 l 694 347 l 347 347 l 347 521 l 174 521 l 174 694 l 347 694 l 347 521 l 694 521 l 694 347 l 868 347 l 868 174 l 694 174 l 694 0 l 521 0 l 521 -174 l 347 -174 z "},"€":{"ha":1215,"x_min":174,"x_max":1042,"o":"m 868 521 l 868 694 l 521 694 l 521 868 l 868 868 l 868 694 l 1042 694 l 1042 521 l 868 521 m 521 0 l 521 174 l 347 174 l 347 347 l 174 347 l 174 521 l 347 521 l 347 694 l 521 694 l 521 521 l 694 521 l 694 347 l 521 347 l 521 174 l 868 174 l 868 0 l 521 0 m 868 174 l 868 347 l 1042 347 l 1042 174 l 868 174 z "},"£":{"ha":1042,"x_min":174,"x_max":868,"o":"m 174 0 l 174 174 l 347 174 l 347 347 l 174 347 l 174 521 l 521 521 l 521 868 l 868 868 l 868 694 l 694 694 l 694 347 l 521 347 l 521 174 l 868 174 l 868 0 l 174 0 z "},"¥":{"ha":1215,"x_min":174,"x_max":1042,"o":"m 1042 694 l 868 694 l 868 868 l 1042 868 l 1042 694 m 521 0 l 521 174 l 347 174 l 347 347 l 521 347 l 521 521 l 347 521 l 347 694 l 174 694 l 174 868 l 347 868 l 347 694 l 868 694 l 868 521 l 694 521 l 694 347 l 868 347 l 868 174 l 694 174 l 694 0 l 521 0 z "},"+":{"ha":1215,"x_min":174,"x_max":1042,"o":"m 521 0 l 521 347 l 174 347 l 174 521 l 521 521 l 521 868 l 694 868 l 694 521 l 1042 521 l 1042 347 l 694 347 l 694 0 l 521 0 z "},"×":{"ha":868,"x_min":174,"x_max":694,"o":"m 694 521 l 521 521 l 521 694 l 694 694 l 694 521 m 174 174 l 174 347 l 347 347 l 347 521 l 174 521 l 174 694 l 347 694 l 347 521 l 521 521 l 521 347 l 694 347 l 694 174 l 521 174 l 521 347 l 347 347 l 347 174 l 174 174 z "},"÷":{"ha":868,"x_min":174,"x_max":694,"o":"m 347 694 l 347 868 l 521 868 l 521 694 l 347 694 m 174 347 l 174 521 l 694 521 l 694 347 l 174 347 m 347 0 l 347 174 l 521 174 l 521 0 l 347 0 z "},"=":{"ha":868,"x_min":174,"x_max":694,"o":"m 174 521 l 174 694 l 694 694 l 694 521 l 174 521 m 174 174 l 174 347 l 694 347 l 694 174 l 174 174 z "},">":{"ha":868,"x_min":174,"x_max":694,"o":"m 521 347 l 521 521 l 347 521 l 347 694 l 174 694 l 174 868 l 347 868 l 347 694 l 521 694 l 521 521 l 694 521 l 694 347 l 521 347 m 347 174 l 347 347 l 521 347 l 521 174 l 347 174 m 174 0 l 174 174 l 347 174 l 347 0 l 174 0 z "},"<":{"ha":868,"x_min":174,"x_max":694,"o":"m 521 694 l 521 868 l 694 868 l 694 694 l 521 694 m 347 521 l 347 694 l 521 694 l 521 521 l 347 521 m 521 0 l 521 174 l 347 174 l 347 347 l 174 347 l 174 521 l 347 521 l 347 347 l 521 347 l 521 174 l 694 174 l 694 0 l 521 0 z "},"±":{"ha":1215,"x_min":174,"x_max":1042,"o":"m 174 -174 l 174 0 l 521 0 l 521 347 l 174 347 l 174 521 l 521 521 l 521 868 l 694 868 l 694 521 l 1042 521 l 1042 347 l 694 347 l 694 0 l 1042 0 l 1042 -174 l 174 -174 z "},"~":{"ha":1042,"x_min":174,"x_max":868,"o":"m 868 694 l 694 694 l 694 868 l 868 868 l 868 694 m 174 521 l 174 694 l 347 694 l 347 868 l 521 868 l 521 694 l 694 694 l 694 521 l 521 521 l 521 694 l 347 694 l 347 521 l 174 521 z "},"¬":{"ha":1042,"x_min":174,"x_max":868,"o":"m 694 174 l 694 347 l 174 347 l 174 521 l 868 521 l 868 174 l 694 174 z "},"^":{"ha":868,"x_min":174,"x_max":694,"o":"m 174 694 l 174 868 l 347 868 l 347 1042 l 521 1042 l 521 868 l 694 868 l 694 694 l 521 694 l 521 868 l 347 868 l 347 694 l 174 694 z "},"µ":{"ha":1042,"x_min":174,"x_max":868,"o":"m 174 -174 l 174 868 l 347 868 l 347 174 l 694 174 l 694 0 l 347 0 l 347 -174 l 174 -174 m 694 174 l 694 868 l 868 868 l 868 174 l 694 174 z "},"%":{"ha":1215,"x_min":174,"x_max":1042,"o":"m 694 0 l 694 347 l 521 347 l 521 521 l 174 521 l 174 868 l 521 868 l 521 521 l 694 521 l 694 347 l 1042 347 l 1042 0 l 694 0 m 694 521 l 694 868 l 868 868 l 868 521 l 694 521 m 347 0 l 347 347 l 521 347 l 521 0 l 347 0 z "},"‰":{"ha":1389,"x_min":174,"x_max":1215,"o":"m 694 0 l 694 347 l 521 347 l 521 521 l 174 521 l 174 868 l 521 868 l 521 521 l 694 521 l 694 347 l 868 347 l 868 0 l 694 0 m 694 521 l 694 868 l 868 868 l 868 521 l 694 521 m 347 0 l 347 347 l 521 347 l 521 0 l 347 0 m 1042 0 l 1042 347 l 1215 347 l 1215 0 l 1042 0 z "},"̈":{"ha":0,"x_min":174,"x_max":694,"o":"m 521 1215 l 521 1389 l 694 1389 l 694 1215 l 521 1215 m 174 1215 l 174 1389 l 347 1389 l 347 1215 l 174 1215 z "},"̀":{"ha":0,"x_min":174,"x_max":521,"o":"m 347 1042 l 347 1215 l 174 1215 l 174 1389 l 347 1389 l 347 1215 l 521 1215 l 521 1042 l 347 1042 z "},"́":{"ha":0,"x_min":174,"x_max":521,"o":"m 174 1042 l 174 1215 l 347 1215 l 347 1389 l 521 1389 l 521 1215 l 347 1215 l 347 1042 l 174 1042 z "},"̂":{"ha":0,"x_min":174,"x_max":694,"o":"m 174 1042 l 174 1215 l 347 1215 l 347 1389 l 521 1389 l 521 1215 l 694 1215 l 694 1042 l 521 1042 l 521 1215 l 347 1215 l 347 1042 l 174 1042 z "},"̃":{"ha":0,"x_min":174,"x_max":868,"o":"m 868 1215 l 694 1215 l 694 1389 l 868 1389 l 868 1215 m 174 1042 l 174 1215 l 347 1215 l 347 1389 l 521 1389 l 521 1215 l 694 1215 l 694 1042 l 521 1042 l 521 1215 l 347 1215 l 347 1042 l 174 1042 z "},"̄":{"ha":0,"x_min":174,"x_max":868,"o":"m 174 694 l 174 868 l 868 868 l 868 694 l 174 694 z "},"̧":{"ha":0,"x_min":188,"x_max":535,"o":"m 361 -174 l 361 0 l 535 0 l 535 -174 l 361 -174 m 188 -347 l 188 -174 l 361 -174 l 361 -347 l 188 -347 z "},"¨":{"ha":868,"x_min":174,"x_max":694,"o":"m 521 1215 l 521 1389 l 694 1389 l 694 1215 l 521 1215 m 174 1215 l 174 1389 l 347 1389 l 347 1215 l 174 1215 z "},"`":{"ha":694,"x_min":174,"x_max":521,"o":"m 347 1042 l 347 1215 l 174 1215 l 174 1389 l 347 1389 l 347 1215 l 521 1215 l 521 1042 l 347 1042 z "},"´":{"ha":694,"x_min":174,"x_max":521,"o":"m 174 1042 l 174 1215 l 347 1215 l 347 1389 l 521 1389 l 521 1215 l 347 1215 l 347 1042 l 174 1042 z "},"ˆ":{"ha":868,"x_min":174,"x_max":694,"o":"m 174 1042 l 174 1215 l 347 1215 l 347 1389 l 521 1389 l 521 1215 l 694 1215 l 694 1042 l 521 1042 l 521 1215 l 347 1215 l 347 1042 l 174 1042 z "},"˜":{"ha":1042,"x_min":174,"x_max":868,"o":"m 868 1215 l 694 1215 l 694 1389 l 868 1389 l 868 1215 m 174 1042 l 174 1215 l 347 1215 l 347 1389 l 521 1389 l 521 1215 l 694 1215 l 694 1042 l 521 1042 l 521 1215 l 347 1215 l 347 1042 l 174 1042 z "},"¯":{"ha":1042,"x_min":174,"x_max":868,"o":"m 174 694 l 174 868 l 868 868 l 868 694 l 174 694 z "},"¸":{"ha":694,"x_min":188,"x_max":535,"o":"m 361 -174 l 361 0 l 535 0 l 535 -174 l 361 -174 m 188 -347 l 188 -174 l 361 -174 l 361 -347 l 188 -347 z "}}}
